<svg xmlns="http://www.w3.org/2000/svg" xmlns:xlink="http://www.w3.org/1999/xlink" width="8px" height="5px" viewBox="0 0 8 5" version="1.1">
    <!-- Generator: Sketch 43.2 (39069) - http://www.bohemiancoding.com/sketch -->
    <title>Combined Shape</title>
    <desc>Created with Sketch.</desc>
    <defs/>
    <g id="Symbols" stroke="none" stroke-width="1" fill="none" fill-rule="evenodd">
        <g id="Card-/-Components-/-Hover-/-Inactive" transform="translate(-253.000000, -18.000000)" fill-rule="nonzero" fill="#FFFFFF">
            <g id="card/hover/campaign-actions/inactive">
                <g id="assets/arrow-down-black" transform="translate(257.000000, 20.500000) scale(1, -1) translate(-257.000000, -20.500000) translate(253.000000, 18.000000)">
                    <path d="M4,2.52569592 L6.54274328,0.0782785125 C6.65116638,-0.0260798762 6.8411411,-0.0260949999 6.9495867,0.078246124 L7.93067761,1.02220446 C8.02309325,1.11112233 8.02310927,1.24549226 7.93071482,1.3344264 L5.18449579,3.97779554 L4.20340488,4.92175388 C4.09497275,5.02608204 3.90502725,5.02608204 3.79659512,4.92175388 L2.81546699,3.97775973 L0.0692851768,1.3344264 C-0.0231092666,1.24549226 -0.0230932516,1.11112233 0.0693223892,1.02220446 L1.0504133,0.078246124 C1.1588589,-0.0260949999 1.34883362,-0.0260798762 1.45725672,0.0782785125 L4,2.52569592 Z" id="Combined-Shape"/>
                </g>
            </g>
        </g>
    </g>
</svg>