<svg width="18px" height="19px" viewBox="6 6 18 19" version="1.1" xmlns="http://www.w3.org/2000/svg" xmlns:xlink="http://www.w3.org/1999/xlink">
    <!-- Generator: Sketch 41.2 (35397) - http://www.bohemiancoding.com/sketch -->
    <desc>Created with Sketch.</desc>
    <defs></defs>
    <path d="M11.6938776,18.4642002 C9.98057143,18.8664366 6,20.1474584 6,23.367843 C6.00097959,23.7164645 6.27844898,23.9990025 6.62081633,24 L23.3848163,24 C23.7254694,23.9960101 24,23.713472 24,23.3658481 C24,20.149204 20.0164898,18.8654391 18.3061224,18.4622052 C18.2850612,18.4562203 18.2715918,18.4367693 18.2715918,18.4153234 L18.2715918,17.723816 C18.6668571,17.1996369 18.962449,16.6046363 19.1422041,15.9694869 C19.5918367,15.5183737 19.7899592,14.8131508 19.8969796,14.42064 C20.071102,13.7962135 20.2462041,12.8902465 19.7649796,12.2433767 L19.744898,12.2151977 C19.9753469,11.0725771 20.2643265,8.39582248 18.2620408,7.03674735 C18.4964082,6.79336068 18.6237551,6.4631927 18.6151837,6.12205238 C18.6132245,6.08913533 18.5977959,6.05896137 18.5730612,6.03826353 C18.5500408,6.01781506 18.5204082,6.00734145 18.4897959,6.00808956 C18.4640816,6.00808956 15.9604898,6.29835809 14.7541224,6.04325096 C13.5124898,5.78315639 12.151102,6.74074328 11.877551,7.7207736 C11.4097959,7.7831165 10.984898,8.02750065 10.6912653,8.403553 C10.1402449,9.09032235 9.97665306,10.1823205 10.1938776,11.6483761 C10.2083265,11.8354047 10.2301224,12.0224334 10.2636735,12.2094621 L10.2416327,12.2376411 C9.76236735,12.884511 9.9364898,13.7902286 10.1115918,14.414655 C10.2178776,14.8004329 10.4167347,15.5126381 10.8644082,15.963502 C11.0434286,16.6026413 11.3390204,17.2026294 11.7350204,17.730549 L11.7350204,18.4115828 C11.7379592,18.4377668 11.7195918,18.4612077 11.6938776,18.4642002 Z M15,20.9257471 L15,20.9257471 C13.939102,20.9412081 12.9355102,20.4327395 12.307102,19.5619339 C12.5806531,19.4060767 12.7893061,19.1537126 12.8926531,18.8527211 C13.1737959,19.0387523 13.4750204,19.1898715 13.7916735,19.3018394 C14.5733878,19.5833799 15.4266122,19.5833799 16.2093061,19.3018394 C16.5249796,19.1848841 16.8252245,19.0310218 17.1056327,18.8419982 C17.208,19.1469796 17.4173878,19.4030842 17.692898,19.5599389 C17.0644898,20.4307445 16.0618776,20.9402107 15,20.9257471 Z M12.6524082,10.3810697 C13.1497959,10.0720983 13.788,10.0858137 14.5474286,10.4149842 C16.1020408,11.0930255 17.2682449,11.0501336 17.9733061,10.8855484 C18.4324898,11.2371623 18.6533878,11.8246818 18.5444082,12.3982364 C16.2886531,11.5850357 13.8291429,11.5703228 11.5648163,12.3573395 C11.6698776,11.8206918 11.9397551,10.824203 12.6524082,10.3810697 Z M17.2040816,13.3042034 L17.2040816,13.3042034 C17.2040816,13.8293799 16.5813061,14.0922176 16.216898,13.7211527 C15.8522449,13.3500877 16.1096327,12.7149383 16.6253878,12.7149383 C16.9447347,12.7149383 17.2040816,12.9790228 17.2040816,13.3042034 Z M13.9400816,13.3042034 L13.9400816,13.3042034 C13.9400816,13.8293799 13.3173061,14.0922176 12.952898,13.7211527 C12.5882449,13.3500877 12.8456327,12.7149383 13.3613878,12.7149383 C13.6836735,12.7109484 13.9476735,12.9750329 13.9476735,13.3042034 L13.9400816,13.3042034 Z M11.1773878,14.109923 C11.1553469,14.0281291 11.1352653,13.9510733 11.1188571,13.8800024 C13.6138776,14.8764912 16.3861224,14.8764912 18.8811429,13.8800024 C18.8647347,13.9510733 18.8466122,14.0281291 18.8226122,14.109923 C18.5395102,15.1258628 18.3100408,15.2203746 18.2458776,15.2320951 C18.1912653,15.2358357 18.146449,15.2777301 18.1376327,15.33334 C17.9723265,16.4166101 17.1276735,17.7647129 15.8294694,18.2400151 C15.2899592,18.4357718 14.7004898,18.4357718 14.1619592,18.2400151 C12.8103673,17.7559849 12.0200816,16.3921717 11.858449,15.331345 C11.8498776,15.2757351 11.8048163,15.2340901 11.7502041,15.2301001 C11.6938776,15.2223696 11.4585306,15.1258628 11.1773878,14.109923 Z M13.5651429,16.3171109 L13.5651429,16.1642461 C13.5651429,16.0221043 13.6787755,15.9061465 13.8186122,15.9061465 L16.1737959,15.9061465 C16.3133878,15.9061465 16.4272653,16.0221043 16.4272653,16.1642461 L16.4272653,16.3093803 C16.4272653,16.4515221 16.3133878,16.5674799 16.1737959,16.5674799 L13.8242449,16.5674799 C13.6846531,16.5664824 13.5727347,16.4515221 13.5727347,16.3093803 L13.5651429,16.3171109 Z" id="shape" stroke="none" fill="#000000" fill-rule="evenodd"></path>
</svg>
