<svg width="14px" height="18px" viewBox="8 6 14 18" version="1.1" xmlns="http://www.w3.org/2000/svg" xmlns:xlink="http://www.w3.org/1999/xlink">
    <!-- Generator: Sketch 41.2 (35397) - http://www.bohemiancoding.com/sketch -->
    <desc>Created with Sketch.</desc>
    <defs></defs>
    <path d="M20.4869097,14.9843429 C20.5667226,14.4117457 20.5629926,12.8203239 20.5091901,11.0728344 C20.3945738,11.0430633 20.287454,10.9794531 20.2039264,10.8833963 C20.1789639,10.8552128 19.7417169,10.3801194 18.9710993,10.3362337 C18.2053132,10.2907375 17.3497425,10.6804751 16.4390126,11.495381 C16.322655,11.5976469 16.1793218,11.6479746 16.0363911,11.6479746 C15.8697058,11.6479746 15.704631,11.5803342 15.5866629,11.4466638 C15.3648184,11.1982464 15.3853521,10.8157559 15.6337696,10.5943141 C16.8053982,9.54669291 17.9613246,9.05267631 19.0765862,9.13320062 C19.6503959,9.17302111 20.1128087,9.361797 20.4518269,9.5621069 C20.4408028,9.31747702 20.429001,9.07456529 20.4165106,8.83566332 C20.4024188,8.48497998 20.169301,8.20032657 19.8375408,8.12020489 C19.7984865,8.11094459 19.7590296,8.09645022 19.7227937,8.0791375 C18.5950508,7.5476771 17.1327295,7.27107612 15.1196219,7.20625405 L14.6207739,7.20625405 C12.6265895,7.26946563 11.1622551,7.54606661 10.0349148,8.07792963 C9.99867891,8.09524236 9.959222,8.10933411 9.9197651,8.1185944 C9.58800497,8.19871608 9.35690022,8.48497998 9.34119798,8.82801351 C9.3285505,9.0670221 9.31660845,9.30999066 9.30545937,9.55464203 C9.64365033,9.35652033 10.1025682,9.17102246 10.6702516,9.13159013 C11.7835001,9.05267631 12.9426474,9.54669291 14.1130682,10.5927036 C14.3614856,10.8141454 14.3832272,11.1966359 14.1617854,11.4450533 C14.0438173,11.5803342 13.877132,11.6479746 13.7116545,11.6479746 C13.5687239,11.6479746 13.4253906,11.5976469 13.309033,11.4937706 C12.3890428,10.6728253 11.5302512,10.282685 10.7535943,10.3362337 C9.98136619,10.3897824 9.55056117,10.8725256 9.54572971,10.8789675 C9.4646777,10.9741089 9.35996808,11.0379539 9.24738834,11.0690866 C9.19284132,12.8266815 9.18968023,14.425326 9.27148575,14.991703 C9.38377486,15.0147251 9.47806293,15.1009522 9.50466232,15.2212405 C9.51432523,15.2602948 9.7140255,16.0784217 10.3509727,16.0784217 C10.3647964,16.0784217 10.3784947,16.0793707 10.3919875,16.081226 C11.5102781,16.132819 12.5172665,15.5107688 12.9308127,15.2142668 C12.9598274,15.1760355 12.990481,15.1374248 13.0227691,15.098441 C13.0911647,15.0161605 13.1935516,14.9793659 13.2917574,14.9908886 C13.379485,14.9803915 13.4705314,15.0084707 13.5389299,15.0746863 C13.650456,15.1850046 13.660119,15.3625607 13.5594636,15.4837497 C13.189857,15.930257 13.21643,16.1363992 13.2337428,16.1899479 C13.2391963,16.2084425 13.2485597,16.2248426 13.2598594,16.2393125 C13.3696509,16.1807417 13.5001411,16.144028 13.6405645,16.1536091 C13.7753405,16.1481289 13.9217034,16.1836794 14.0687798,16.2841613 C14.3403233,16.4671753 14.6604058,16.6564523 14.7704261,16.6964457 L14.9118692,16.6964457 C15.0173561,16.6585993 15.3410638,16.4681593 15.6180674,16.2825508 C15.7750227,16.1767673 15.9302557,16.1432041 16.0715035,16.1540244 C16.2021919,16.1499364 16.3232294,16.1853423 16.4257338,16.240079 C16.4384035,16.2242846 16.4486328,16.2058968 16.4547149,16.1851164 C16.4704171,16.1315678 16.4957823,15.9258282 16.1273836,15.4821393 C16.0267282,15.3609502 16.0363911,15.1850046 16.1479173,15.0746863 C16.2176595,15.0061984 16.3128814,14.9778839 16.403681,14.991009 C16.4997893,14.9822475 16.598267,15.0198572 16.6636754,15.1000514 C16.6940916,15.1367387 16.7230489,15.1730954 16.7505458,15.2091165 C17.1585928,15.5025432 18.1609105,16.124577 19.2689768,16.082364 C19.2901951,16.0776474 19.3120678,16.0752008 19.3342639,16.0752008 C19.9792636,16.0752008 20.1789639,15.2272798 20.1805744,15.21963 C20.2126799,15.0758684 20.3446627,14.9795168 20.4869097,14.9843429 Z M20.0661705,16.4560889 C19.3220437,18.6729527 17.7848167,21.978523 15.669492,22.6646808 L16.2187787,19.7350303 C16.2360914,19.6468562 16.2107262,19.5554611 16.1543592,19.4862102 C16.0959791,19.4185698 16.011026,19.377905 15.921644,19.377905 L13.9129653,19.377905 C13.8219728,19.377905 13.7337987,19.4201803 13.6774317,19.4910417 C13.620662,19.5619031 13.5985179,19.654506 13.6174411,19.7442906 L14.2653655,22.7153603 C12.0816275,22.166386 10.4870528,18.7939181 9.71303638,16.5157815 C9.84894266,16.5935626 10.0061606,16.6497238 10.1875084,16.6710806 L11.1513843,18.0613327 C11.2081539,18.1434675 11.3007569,18.1921847 11.3998018,18.1921847 L13.9145758,18.1921847 C14.0184521,18.1921847 14.114276,18.138636 14.1694352,18.0536829 L14.6427261,17.2974638 C14.6569135,17.2987675 14.667605,17.2987675 14.675933,17.2987675 L14.8426183,17.2987675 L15.0093036,17.2987675 C15.0180008,17.2987675 15.0292756,17.2987675 15.0444189,17.2972918 L15.5158015,18.0504619 C15.5709607,18.138636 15.6683951,18.1921847 15.7722714,18.1921847 L18.2870454,18.1921847 C18.3860903,18.1921847 18.4786932,18.1434675 18.5354629,18.0601248 L19.4993388,16.6694701 C19.7233225,16.6430922 19.9104964,16.5637034 20.0661705,16.4560889 Z M15.6043576,17.0515641 C15.7207067,16.9832194 15.8595712,16.8959793 16.0255203,16.7846199 C16.0354979,16.7782828 16.0489973,16.7692817 16.0654441,16.763544 C16.0836264,16.7718129 16.1034008,16.786681 16.1245652,16.8111929 C16.1867836,16.8907508 16.285177,16.9324111 16.383379,16.9255063 C16.4238839,16.93196 16.4658786,16.9302282 16.5066531,16.9194981 C16.5537598,16.9086273 16.9656416,16.7890487 17.0997145,16.3755564 C17.1224762,16.3043961 17.1349562,16.2304635 17.1371827,16.1538526 C17.5797019,16.3823854 18.1415973,16.5992527 18.7661885,16.6665273 L18.1280099,17.5866419 L15.9389567,17.5866419 L15.6043576,17.0515641 Z M13.6243862,16.7620113 C13.6024855,16.7702686 13.5817413,16.786748 13.5622819,16.8111929 C13.4978379,16.8935967 13.3945845,16.9353431 13.292932,16.9245784 C13.2555354,16.9299098 13.2172427,16.9281877 13.1801941,16.9182902 C13.1330874,16.9054063 12.720803,16.7874382 12.5871326,16.3739459 C12.5642415,16.3033716 12.5515882,16.2300703 12.5491052,16.154134 C12.1059357,16.3828518 11.5416679,16.5998275 10.9169903,16.6667812 L11.5572268,17.5898629 L13.74628,17.5898629 L14.083109,17.0512191 C13.9663982,16.9822677 13.8269501,16.8941108 13.660119,16.7813989 C13.6508767,16.7756071 13.6388811,16.76759 13.6243862,16.7620113 Z M14.8788543,24 C10.3948585,24 8.30646069,16.1130472 8.15829598,15.529246 C7.85794033,14.568591 8.06408254,10.1268705 8.13655441,8.77124388 C8.17117986,7.92694656 8.75940989,7.18934395 9.57230273,6.96266804 C10.8461972,6.37443801 12.447423,6.06764041 14.6018507,6 L15.1381425,6 C17.3135066,6.06764041 18.9143297,6.37443801 20.1866137,6.96266804 C20.9999091,7.18934395 21.5865287,7.92694656 21.6227646,8.77929631 C21.693626,10.128481 21.8993656,14.5702015 21.59901,15.529246 C21.4512479,16.1114367 19.3628501,24 14.8788543,24 Z M12.2791272,13.4674212 C11.7851106,13.4674212 11.1578263,13.3542846 10.4186132,13.1308296 C10.3147368,13.0994251 10.2362256,13.0160825 10.2108605,12.9105957 C10.1858979,12.8055114 10.2189129,12.6951931 10.2974241,12.6215134 C10.336881,12.5852775 10.7032666,12.2627776 11.5258223,12.2627776 C12.0323202,12.2627776 12.6108873,12.3839667 13.2446136,12.6231239 C13.3263457,12.6545284 13.3923756,12.7189478 13.4225723,12.8022905 C13.4523663,12.8856331 13.4443138,12.9766256 13.4020386,13.0539289 C13.3484899,13.1529738 13.1049039,13.4674212 12.2791272,13.4674212 Z M17.6452667,13.4674212 C16.8178795,13.4674212 16.575904,13.1529738 16.5207448,13.0555394 C16.4768591,12.9782361 16.4688066,12.8872436 16.5002111,12.803901 C16.5300051,12.7205583 16.5948272,12.6561389 16.6781698,12.6247344 C17.3118961,12.3855772 17.8904632,12.2643881 18.3969611,12.2643881 C19.2211273,12.2643881 19.5859024,12.5852775 19.6253593,12.6231239 C19.7038705,12.6968036 19.7368855,12.8071219 19.7119229,12.9122061 C19.6865578,13.017693 19.6080466,13.1010356 19.5041702,13.1324401 C18.7665676,13.3542846 18.1392833,13.4674212 17.6452667,13.4674212 Z M16.5066531,18.9644127 L13.3263457,18.9644127 C13.1596604,18.9644127 13.0243796,18.8291319 13.0243796,18.6624466 C13.0243796,18.4957613 13.1596604,18.3604805 13.3263457,18.3604805 L16.5066531,18.3604805 C16.6733384,18.3604805 16.8086192,18.4957613 16.8086192,18.6624466 C16.8086192,18.8291319 16.6733384,18.9644127 16.5066531,18.9644127 Z" id="Combined-Shape" stroke="none" fill="#000000" fill-rule="evenodd"></path>
</svg>
