
<svg width="12px" height="12px" viewBox="6 6 12 12" version="1.1" xmlns="http://www.w3.org/2000/svg" xmlns:xlink="http://www.w3.org/1999/xlink">
    <!-- Generator: Sketch 41.2 (35397) - http://www.bohemiancoding.com/sketch -->
    <desc>Created with Sketch.</desc>
    <defs></defs>
    <g id="Page-1" stroke="none" stroke-width="1" fill="none" fill-rule="evenodd" transform="translate(7.000000, 7.000000)">
        <path d="M10,2.63111111 C10,2.24613333 9.84722222,1.87676667 9.57508889,1.60463333 L8.39542222,0.425411111 C8.12285556,0.153277778 7.75393333,6.66666667e-05 7.36894444,6.66666667e-05 L1.45183333,6.66666667e-05 C0.649744444,6.66666667e-05 5.5444445e-05,0.649811111 5.5444445e-05,1.45184444 L5.5444445e-05,8.54862222 C5.5444445e-05,9.35026667 0.6498,9.99995544 1.45183333,9.99995544 L8.54816667,9.99995544 C9.35025556,9.99995544 9.99994444,9.35021111 9.99994444,8.54817778 L10,2.63111111 Z M6.77433333,0.322555556 L6.77433333,2.41933333 C6.77433333,2.55344444 6.72051333,2.67324444 6.63241111,2.76134444 C6.54430333,2.84901778 6.42451111,2.90283333 6.2904,2.90326667 L3.70962222,2.90326667 C3.57551111,2.90326667 3.45571111,2.84944667 3.36761111,2.76134444 C3.27993778,2.67323667 3.22612222,2.55344444 3.22568889,2.41933333 L3.22568889,0.322555556 L6.77433333,0.322555556 Z M7.25784444,5.484 C7.39195556,5.484 7.51175556,5.53782 7.59985556,5.62592222 C7.68752889,5.71403 7.74134444,5.83382222 7.74177778,5.96793333 L7.74177778,9.6776 L2.25822222,9.6776 L2.25822222,5.96793333 C2.25822222,5.83382222 2.31204222,5.71402222 2.40014444,5.62592222 C2.48825222,5.53824889 2.60804444,5.48443333 2.74215556,5.484 L7.25784444,5.484 Z M9.67751111,8.54822222 C9.67751111,8.86028889 9.55121111,9.14153333 9.34677778,9.3464 C9.14191111,9.550822 8.86066667,9.67713311 8.5486,9.67713311 L8.06422222,9.67756711 L8.06422222,5.9679 C8.06422222,5.52258889 7.70311111,5.16147778 7.2578,5.16147778 L2.74213333,5.16147778 C2.29682222,5.16147778 1.93571111,5.52258889 1.93571111,5.9679 L1.93571111,9.67756711 L1.45176667,9.67756711 C1.13926667,9.67756711 0.858011111,9.55126711 0.653588889,9.34683333 C0.449166889,9.14196667 0.322855778,8.86072222 0.322855778,8.54865556 L0.322855778,1.45187889 C0.322855778,1.13937889 0.449155778,0.858123333 0.653588889,0.653701111 C0.858455556,0.449278889 1.1397,0.322967778 1.45176667,0.322967778 L2.9031,0.322967778 L2.9031,2.41974556 C2.9031,2.86505667 3.26421111,3.22616778 3.70952222,3.22616778 L6.2903,3.22616778 C6.73561111,3.22616778 7.09672222,2.86505667 7.09672222,2.41974556 L7.09672222,0.322523333 L7.36885556,0.322523333 C7.66833333,0.322523333 7.95522222,0.441445556 8.16703333,0.653256667 L9.3467,1.83292333 C9.5585,2.04472333 9.67743333,2.33162333 9.67743333,2.63110111 L9.67751111,8.54822222 Z" id="Fill-1" stroke="#000000" stroke-width="0.7" fill="#000000"></path>
        <path d="M5.61887778,2.00371109 C5.73368692,2.00371109 5.82721111,1.94341975 5.82721111,1.86860324 L5.82721111,1.23881896 C5.82721111,1.1643632 5.7342432,1.10371111 5.61887778,1.10371111 C5.50406863,1.10371111 5.41054444,1.16400244 5.41054444,1.23881896 L5.41054444,1.86860324 C5.41054444,1.943059 5.5040715,2.00371109 5.61887778,2.00371109 Z M3.77044444,7.15797778 L6.23011111,7.15797778 C6.31908667,7.15797778 6.39156667,7.06500987 6.39156667,6.94964444 C6.39156667,6.8348353 6.31951778,6.74131111 6.23011111,6.74131111 L3.77044444,6.74131111 C3.68146889,6.74131111 3.60898889,6.83427902 3.60898889,6.94964444 C3.60898889,7.06445359 3.68103778,7.15797778 3.77044444,7.15797778 Z M3.77044444,8.51342222 L5.033,8.51342222 C5.12197556,8.51342222 5.19445556,8.42045431 5.19445556,8.30508889 C5.19445556,8.19027975 5.12240667,8.09675556 5.033,8.09675556 L3.77044444,8.09675556 C3.68146889,8.09675556 3.60898889,8.18972346 3.60898889,8.30508889 C3.60898889,8.42045862 3.68103778,8.51342222 3.77044444,8.51342222 Z" id="Combined-Shape" stroke="#000000" stroke-width="0.7" fill="#000000"></path>
    </g>
</svg>
