<svg viewBox="6 6 13 13" version="1.1" xmlns="http://www.w3.org/2000/svg" xmlns:xlink="http://www.w3.org/1999/xlink">
    <path d="M14.69604,15.0008133 C14.2365333,15.0008133 13.8241067,15.2093733 13.5491067,15.5382 L9.93964,12.9709467 C9.98041333,12.83572 10.00212,12.6937467 10.00212,12.5459067 C10.00212,12.39748 9.98041333,12.2559467 9.93964,12.12072 L13.54676,9.55126667 C13.82176,9.88009333 14.2343333,10.0886533 14.69604,10.0886533 C15.5233867,10.0886533 16.196,9.41604 16.196,8.58869333 C16.1954133,7.76090667 15.5228,7.08829333 14.69604,7.08829333 C13.8686933,7.08829333 13.19608,7.76090667 13.19608,8.58825333 C13.19608,8.73653333 13.2179333,8.87806667 13.25856,9.01329333 L9.64924,11.5828933 C9.37424,11.25392 8.96166667,11.04536 8.49996,11.04536 C7.67261333,11.04536 7,11.7179733 7,12.54532 C7,13.3726667 7.67261333,14.04528 8.49996,14.04528 C8.95946667,14.04528 9.37189333,13.83672 9.64924,13.5077467 L13.25856,16.075 C13.2179333,16.2102267 13.19608,16.3523467 13.19608,16.5001867 C13.19608,17.3273867 13.8686933,18 14.69604,18 C15.5233867,18 16.196,17.3273867 16.196,16.5001867 C16.1954133,15.6757733 15.5228,15.0008133 14.69604,15.0008133 Z M14.69604,7.69388 C15.1881067,7.69388 15.5898267,8.09545333 15.5898267,8.58766667 C15.5898267,9.07973333 15.1881067,9.48130667 14.69604,9.48130667 C14.2039733,9.48130667 13.8022533,9.07973333 13.8022533,8.58766667 C13.8022533,8.09604 14.2016267,7.69388 14.69604,7.69388 Z M8.49937333,13.4391067 C8.00730667,13.4391067 7.60558667,13.0373867 7.60558667,12.54532 C7.60558667,12.0532533 8.00730667,11.6515333 8.49937333,11.6515333 C8.99144,11.6515333 9.39316,12.0532533 9.39316,12.54532 C9.39316,13.0373867 8.99378667,13.4391067 8.49937333,13.4391067 Z M14.69604,17.39676 C14.2039733,17.39676 13.8022533,16.9951867 13.8022533,16.5029733 C13.8022533,16.0109067 14.2039733,15.6093333 14.69604,15.6093333 C15.1881067,15.6093333 15.5898267,16.0109067 15.5898267,16.5029733 C15.5898267,16.9946 15.1876667,17.39676 14.69604,17.39676 Z" id="Page-1" stroke="#000000" stroke-width="0.35" fill="#000000" fill-rule="evenodd"></path>
</svg>
