<svg xmlns="http://www.w3.org/2000/svg" xmlns:xlink="http://www.w3.org/1999/xlink" width="60px" height="60px" viewBox="0 0 60 60" version="1.1">
    <!-- Generator: Sketch 43.2 (39069) - http://www.bohemiancoding.com/sketch -->
    <title>nav-campaign-hub</title>
    <desc>Created with Sketch.</desc>
    <defs/>
    <g id="Page-1" stroke="none" stroke-width="1" fill="none" fill-rule="evenodd">
        <g id="nav-campaign-hub" fill="#FFFFFF">
            <path d="M24,24 L23,24 C21.896,24 21,24.896 21,26 L21,27 C21,28.104 21.896,29 23,29 L24,29 C25.104,29 26,28.104 26,27 L26,26 C26,24.896 25.104,24 24,24 M24,25 C24.552,25 25,25.448 25,26 L25,27 C25,27.552 24.552,28 24,28 L23,28 C22.448,28 22,27.552 22,27 L22,26 C22,25.448 22.448,25 23,25 L24,25 Z M30.9961,24 C32.1001,24 32.9961,24.896 32.9961,26 L32.9961,27 C32.9961,28.104 32.1001,29 30.9961,29 L29.9961,29 C28.8921,29 27.9961,28.104 27.9961,27 L27.9961,26 C27.9961,24.896 28.8921,24 29.9961,24 L30.9961,24 Z M30.9961,25 L29.9961,25 C29.4441,25 28.9961,25.448 28.9961,26 L28.9961,27 C28.9961,27.552 29.4441,28 29.9961,28 L30.9961,28 C31.5481,28 31.9961,27.552 31.9961,27 L31.9961,26 C31.9961,25.448 31.5481,25 30.9961,25 Z M37.9961,24 C39.1001,24 39.9961,24.896 39.9961,26 L39.9961,27 C39.9961,28.104 39.1001,29 37.9961,29 L36.9961,29 C35.8921,29 34.9961,28.104 34.9961,27 L34.9961,26 C34.9961,24.896 35.8921,24 36.9961,24 L37.9961,24 Z M37.9961,25 L36.9961,25 C36.4441,25 35.9961,25.448 35.9961,26 L35.9961,27 C35.9961,27.552 36.4441,28 36.9961,28 L37.9961,28 C38.5481,28 38.9961,27.552 38.9961,27 L38.9961,26 C38.9961,25.448 38.5481,25 37.9961,25 Z M24,31 C25.104,31 26,31.896 26,33 L26,34 C26,35.104 25.104,36 24,36 L23,36 C21.896,36 21,35.104 21,34 L21,33 C21,31.896 21.896,31 23,31 L24,31 Z M24,32 L23,32 C22.448,32 22,32.448 22,33 L22,34 C22,34.552 22.448,35 23,35 L24,35 C24.552,35 25,34.552 25,34 L25,33 C25,32.448 24.552,32 24,32 Z M30.9961,31 C32.1001,31 32.9961,31.896 32.9961,33 L32.9961,34 C32.9961,35.104 32.1001,36 30.9961,36 L29.9961,36 C28.8921,36 27.9961,35.104 27.9961,34 L27.9961,33 C27.9961,31.896 28.8921,31 29.9961,31 L30.9961,31 Z M30.9961,32 L29.9961,32 C29.4441,32 28.9961,32.448 28.9961,33 L28.9961,34 C28.9961,34.552 29.4441,35 29.9961,35 L30.9961,35 C31.5481,35 31.9961,34.552 31.9961,34 L31.9961,33 C31.9961,32.448 31.5481,32 30.9961,32 Z M37.9961,31 C39.1001,31 39.9961,31.896 39.9961,33 L39.9961,34 C39.9961,35.104 39.1001,36 37.9961,36 L36.9961,36 C35.8921,36 34.9961,35.104 34.9961,34 L34.9961,33 C34.9961,31.896 35.8921,31 36.9961,31 L37.9961,31 Z M37.9961,32 L36.9961,32 C36.4441,32 35.9961,32.448 35.9961,33 L35.9961,34 C35.9961,34.552 36.4441,35 36.9961,35 L37.9961,35 C38.5481,35 38.9961,34.552 38.9961,34 L38.9961,33 C38.9961,32.448 38.5481,32 37.9961,32 Z" id="Combined-Shape"/>
        </g>
    </g>
</svg>