<svg xmlns="http://www.w3.org/2000/svg" xmlns:xlink="http://www.w3.org/1999/xlink" width="60px" height="60px" viewBox="0 0 60 60" version="1.1">
    <!-- Generator: Sketch 43.2 (39069) - http://www.bohemiancoding.com/sketch -->
    <title>nav-campaign-overview</title>
    <desc>Created with Sketch.</desc>
    <defs/>
    <g id="Page-1" stroke="none" stroke-width="1" fill="none" fill-rule="evenodd" stroke-linejoin="round">
        <g id="nav-campaign-overview" stroke="#FFFFFF">
            <g id="icon" transform="translate(23.000000, 23.000000)">
                <path d="M0.4999,0.4998 L11.8359,11.8358" id="Stroke-1"/>
                <path d="M14.3964,0.4998 L3.0604,11.8358" id="Stroke-3"/>
                <path d="M14.3964,12.8963 C14.3964,13.7243 13.7244,14.3963 12.8964,14.3963 C12.0684,14.3963 11.3964,13.7243 11.3964,12.8963 C11.3964,12.0673 12.0684,11.3963 12.8964,11.3963 C13.7244,11.3963 14.3964,12.0673 14.3964,12.8963 Z" id="Stroke-5"/>
                <path d="M3.4999,12.8963 C3.4999,13.7243 2.8289,14.3963 1.9999,14.3963 C1.1719,14.3963 0.4999,13.7243 0.4999,12.8963 C0.4999,12.0673 1.1719,11.3963 1.9999,11.3963 C2.8289,11.3963 3.4999,12.0673 3.4999,12.8963 Z" id="Stroke-7"/>
                <polyline id="Stroke-9" stroke-linecap="round" points="14.3964 3.4998 14.3964 0.4998 11.3964 0.4998"/>
                <polyline id="Stroke-11" stroke-linecap="round" points="3.4999 0.4998 0.4999 0.4998 0.4999 3.4998"/>
            </g>
        </g>
    </g>
</svg>