<svg width="18px" height="18px" viewBox="437 29 18 18" version="1.1" xmlns="http://www.w3.org/2000/svg" xmlns:xlink="http://www.w3.org/1999/xlink">
    <defs></defs>
    <path d="M445.9998,36.8686574 L452.634315,30.2343087 C452.946734,29.9218971 453.453266,29.9218971 453.765685,30.2343087 C454.078105,30.5467203 454.078105,31.0532397 453.765685,31.3656513 L447.131171,38 L453.765685,44.6343487 C454.078105,44.9467603 454.078105,45.4532797 453.765685,45.7656913 C453.453266,46.0781029 452.946734,46.0781029 452.634315,45.7656913 L445.9998,39.1313426 L439.365685,45.7652913 C439.053266,46.0777029 438.546734,46.0777029 438.234315,45.7652913 C437.921895,45.4528797 437.921895,44.9463603 438.234315,44.6339487 L444.868429,38 L438.234315,31.3660513 C437.921895,31.0536397 437.921895,30.5471203 438.234315,30.2347087 C438.546734,29.9222971 439.053266,29.9222971 439.365685,30.2347087 L445.9998,36.8686574 Z" id="assets/x/big/dark" stroke="#000000" stroke-width="1.5" fill="#000000" fill-rule="evenodd"></path>
</svg>
