<svg width="12px" height="11px" viewBox="15 6 12 11" version="1.1" xmlns="http://www.w3.org/2000/svg" xmlns:xlink="http://www.w3.org/1999/xlink">
    <path d="M25.6212003,9.47153154 L25.6212003,9.47153154 C24.571885,6.99681529 21.8050326,5.71463947 19.2210965,6.50555272 C16.6373783,7.2971155 15.0770315,9.90368671 15.612917,12.5355897 C16.1477124,15.1677091 18.6045447,16.9682113 21.2948731,16.7010372 C23.9852015,16.4336466 26.0341243,14.185617 26.0341243,11.5004524 C26.0349963,10.8035048 25.8945934,10.1134855 25.6212003,9.47153154 Z M23.2230145,12.359783 L21.2037421,14.3648878 C20.9728622,14.5941725 20.5991812,14.5941725 20.3683014,14.3648878 L18.349901,12.3606491 C17.7930859,11.8074645 18.6285266,10.9777958 19.1853417,11.5309804 L20.195414,12.5338576 L20.195414,9.05041841 C20.195414,8.26794907 21.3775015,8.26794907 21.3775015,9.05041841 L21.3775015,12.5338576 L22.3875738,11.5309804 C22.9443889,10.9777958 23.7798296,11.8074645 23.2230145,12.3606491 L23.2230145,12.359783 Z" id="shape" stroke="none" fill="#2A2A2A" fill-rule="evenodd"></path>
</svg>
