<svg xmlns="http://www.w3.org/2000/svg" xmlns:xlink="http://www.w3.org/1999/xlink" width="60px" height="60px" viewBox="0 0 60 60" version="1.1">
    <!-- Generator: Sketch 43.2 (39069) - http://www.bohemiancoding.com/sketch -->
    <title>Navigation / Icon / Exit</title>
    <desc>Created with Sketch.</desc>
    <defs/>
    <g id="Symbols" stroke="none" stroke-width="1" fill="currenColor" fill-rule="evenodd">
        <g id="Navigation-/-Icon-/-Exit" fill-rule="nonzero" fill="currenColor">
            <path d="M31.5624655,24.3896474 C31.3768227,24.3923567 31.1979242,24.3206546 31.0627162,24.1881757 C30.931799,24.0572585 30.8578402,23.8800416 30.8578402,23.6948784 C30.8578402,23.5097141 30.9318,23.3324938 31.0652798,23.1990437 C31.1979286,23.0691012 31.3768238,22.9974001 31.55736,23.0000721 L34.3157828,23.0000859 C35.0761263,23.0000859 35.7001897,23.6241492 35.7001897,24.3844944 L35.7001897,34.7285801 C35.7001897,35.4889253 35.0761263,36.1129887 34.3157811,36.1129887 L31.5624655,36.1129514 C31.3768227,36.1156606 31.1979242,36.0439586 31.0627162,35.9114797 C30.931799,35.7805625 30.8578402,35.6033456 30.8578402,35.4181824 C30.8578402,35.233018 30.9318,35.0557978 31.0652798,34.9223477 C31.1979286,34.7924052 31.3768238,34.7207041 31.5573583,34.7233761 L34.310584,34.7233761 L34.310584,24.3896846 L31.5624655,24.3896474 Z M28.6309791,31.8525572 C28.8832361,32.1400752 28.8560088,32.577811 28.5698027,32.8314733 C28.2827671,33.0860176 27.8444623,33.0604566 27.5872826,32.7718015 L25.1751747,30.0150955 C24.9418611,29.7519422 24.9418611,29.3559259 25.1736626,29.0944928 L27.5838073,26.3401032 C27.7359422,26.1608031 27.9689457,26.0710135 28.2021777,26.1008497 C28.4607151,26.1332809 28.679654,26.3079037 28.767206,26.5517381 C28.8568433,26.7962041 28.8016426,27.0703184 28.6313712,27.2548255 L27.2261432,28.8619584 L32.5698687,28.8625552 C32.6078846,28.8609706 32.6078846,28.8609706 32.6394751,28.8622125 C32.8247039,28.8703853 32.9990262,28.9523153 33.120689,29.0873635 C33.2457973,29.2233471 33.310485,29.4037554 33.3023438,29.5882642 C33.294171,29.7734916 33.2122407,29.9478153 33.0771929,30.0694779 C32.9412093,30.1945861 32.760801,30.2592738 32.5917203,30.2514729 L27.2275002,30.2514729 L28.6309791,31.8525572 Z" id="Shape"/>
        </g>
    </g>
</svg>