<?xml version="1.0" encoding="UTF-8"?>
<svg width="30px" height="30px" viewBox="0 0 30 30" version="1.1" xmlns="http://www.w3.org/2000/svg" xmlns:xlink="http://www.w3.org/1999/xlink">
    <!-- Generator: Sketch 42 (36781) - http://www.bohemiancoding.com/sketch -->
    <title>status/failed</title>
    <desc>Created with Sketch.</desc>
    <defs></defs>
    <g id="Symbols" stroke="none" stroke-width="1" fill="none" fill-rule="evenodd">
        <g id="status/failed" fill="#D60000">
            <path d="M15,13.5857864 L12.1733218,10.7591082 C11.7867378,10.3725242 11.1478836,10.366835 10.7573593,10.7573593 C10.3641124,11.1506063 10.367618,11.7818316 10.7591082,12.1733218 L13.5857864,15 L10.7591082,17.8266782 C10.367618,18.2181684 10.3641124,18.8493937 10.7573593,19.2426407 C11.1478836,19.633165 11.7867378,19.6274758 12.1733218,19.2408918 L15,16.4142136 L17.8266782,19.2408918 C18.2132622,19.6274758 18.8521164,19.633165 19.2426407,19.2426407 C19.6358876,18.8493937 19.632382,18.2181684 19.2408918,17.8266782 L16.4142136,15 L19.2408918,12.1733218 C19.632382,11.7818316 19.6358876,11.1506063 19.2426407,10.7573593 C18.8521164,10.366835 18.2132622,10.3725242 17.8266782,10.7591082 L15,13.5857864 Z M15,6 C19.9715043,6 24,10.0284957 24,15 C24,19.9715043 19.9715043,24 15,24 C10.0284957,24 6,19.9715043 6,15 C6,10.0284957 10.0284957,6 15,6 Z" id="Combined-Shape"></path>
        </g>
    </g>
</svg>