<svg width="34px" height="55px" viewBox="0 0 34 55" version="1.1" xmlns="http://www.w3.org/2000/svg" xmlns:xlink="http://www.w3.org/1999/xlink">
    <!-- Generator: Sketch 41.2 (35397) - http://www.bohemiancoding.com/sketch -->
    <desc>Created with Sketch.</desc>
    <defs></defs>
    <path d="M0,2.00630931 C0,0.898255275 0.891941149,0 1.9999204,0 L32.0000796,0 C33.1046051,0 34,0.886195535 34,2.00630931 L34,55 L17,47.6666667 L0,55 L0,2.00630931 Z" id="Rectangle" stroke="none" fill="#000000" fill-rule="evenodd"></path>
    <g id="flag-active" stroke="none" stroke-width="1" fill="none" fill-rule="evenodd" transform="translate(6.000000, 17.000000)">
        <path d="M17.1520178,10.374942 L21.6000004,6.7531281 L10.0391978,1.6915482 L10.26645,1.19990695 C10.4634794,0.770075276 10.26645,0.267092823 9.82821939,0.0748593946 C9.38998877,-0.117941094 8.8721327,0.0748593946 8.67452208,0.501855772 L8.44785107,0.994064079 L8.12063113,0.850030773 L3.85689135,10.1220331 L4.1841113,10.2660664 L0.0767163959,19.1995338 C-0.120894226,19.6293655 0.0767163959,20.1323479 0.514947011,20.3251484 C0.630607345,20.3756168 0.750917342,20.4000004 0.871808546,20.4000004 C1.20542177,20.4000004 1.52334239,20.2140046 1.66864432,19.897585 L5.77545801,10.9641176 L17.3362606,16.0234293 L17.1520178,10.374942 Z" id="shape" fill="#FFFFFF"></path>
    </g>
</svg>
