
<svg width="22px" height="22px" viewBox="1799 30 22 22" version="1.1" xmlns="http://www.w3.org/2000/svg" xmlns:xlink="http://www.w3.org/1999/xlink">
    <!-- Generator: Sketch 42 (36781) - http://www.bohemiancoding.com/sketch -->
    <desc>Created with Sketch.</desc>
    <defs></defs>
    <path d="M1810,30 C1803.91301,30 1799,34.9130074 1799,41 C1799,47.0869926 1803.91301,52 1810,52 C1816.08699,52 1821,47.0869926 1821,41 C1821,34.9130074 1816.08699,30 1810,30 Z M1811.73523,47.1111111 C1811.73523,47.648237 1811.27046,48.1130074 1810.73333,48.1130074 L1809.21843,48.1130074 C1808.68098,48.1130074 1808.21621,47.648237 1808.21621,47.1111111 L1808.21621,40.7073185 C1808.21621,40.1444444 1808.68098,39.7050963 1809.21843,39.7050963 L1810.73333,39.7050963 C1811.27046,39.7050963 1811.73523,40.1698667 1811.73523,40.7073185 L1811.73523,47.1111111 Z M1809.97588,38.0425481 C1808.85176,38.0425481 1807.92222,37.1130074 1807.92222,35.9647704 C1807.92222,34.8162074 1808.85176,33.8869926 1809.97588,33.8869926 C1811.12412,33.8869926 1812.05366,34.8162074 1812.05366,35.9647704 C1812.05366,37.1130074 1811.12412,38.0425481 1809.97588,38.0425481 Z" id="Page-1" stroke="none" fill="" fill-rule="evenodd"></path>
</svg>