<?xml version="1.0" encoding="UTF-8"?>
<svg width="12px" height="14px" viewBox="0 0 12 14" version="1.1" xmlns="http://www.w3.org/2000/svg" xmlns:xlink="http://www.w3.org/1999/xlink">
    <!-- Generator: Sketch 42 (36781) - http://www.bohemiancoding.com/sketch -->
    <title>assets/icon/logout</title>
    <desc>Created with Sketch.</desc>
    <defs></defs>
    <g id="Design" stroke="none" stroke-width="1" fill="none" fill-rule="evenodd" opacity="0.4">
        <g id="Overview" transform="translate(-24.000000, -1042.000000)" stroke-width="0.7" stroke="#FFFFFF" fill="#FFFFFF">
            <g id="Group-17">
                <g id="assets/icon/logout" transform="translate(25.000000, 1043.000000)">
                    <path d="M1.03440857,5.05511768e-05 C0.467363031,5.05511768e-05 0,0.467413582 0,1.03445912 L0,11.3785448 C0,11.9455903 0.467363031,12.4129533 1.03440857,12.4129533 L3.79283141,12.4129533 C3.88509376,12.4142998 3.97399083,12.3786075 4.0399861,12.313957 C4.10531072,12.2486324 4.14234945,12.1604128 4.14234945,12.068147 C4.14234945,11.9758813 4.10531072,11.88766 4.0399861,11.8223371 C3.97398911,11.7576866 3.88509376,11.7219943 3.79283141,11.7233407 L1.03440857,11.7233407 C0.837095132,11.7233407 0.689605711,11.5758565 0.689605711,11.3785379 L0.689605711,1.03445222 C0.689605711,0.837138788 0.83708996,0.689649366 1.03440857,0.689649366 L3.79283141,0.689649366 C3.88509376,0.690995821 3.97399083,0.655303554 4.0399861,0.590653018 C4.10531072,0.525328393 4.14234945,0.437108859 4.14234945,0.344843063 C4.14234945,0.252577267 4.10531072,0.164356008 4.0399861,0.0990331069 C3.97398911,0.0343825715 3.88509376,-0.00130969609 3.79283141,3.67590625e-05 L1.03440857,5.05511768e-05 Z M7.19241516,3.09793181 C7.06378818,3.11409444 6.9553632,3.20029515 6.91159048,3.32219158 C6.86714367,3.44341048 6.89475548,3.57944899 6.98230265,3.6744077 L8.89492409,5.86183702 L2.75846767,5.86183702 C2.74769258,5.86116293 2.73691749,5.86116293 2.7261424,5.86183702 C2.63455414,5.86587811 2.54836205,5.90628383 2.48707334,5.97430136 C2.42511572,6.04164481 2.39346454,6.13121425 2.39750563,6.22280078 C2.40154672,6.31438732 2.44195244,6.40058113 2.50996997,6.46186984 C2.57731342,6.52382747 2.66688286,6.55547864 2.75846939,6.55143756 L8.89492581,6.55143756 L6.98230437,8.73335002 C6.85704439,8.8761191 6.87051239,9.09363453 7.0126091,9.21957377 C7.15537817,9.34618193 7.3728936,9.3333863 7.49950521,9.19128959 L9.9131252,6.43286675 C10.0289583,6.30221922 10.0289583,6.10557988 9.9131252,5.97493408 L7.49950521,3.21651123 C7.42407958,3.12761761 7.30824306,3.08316907 7.19242378,3.09798525 L7.19241516,3.09793181 Z" id="Page-1" transform="translate(5.000000, 6.206495) scale(-1, 1) translate(-5.000000, -6.206495) "></path>
                </g>
            </g>
        </g>
    </g>
</svg>