<svg width="34px" height="20px" viewBox="0 0 34 20" version="1.1" xmlns="http://www.w3.org/2000/svg" xmlns:xlink="http://www.w3.org/1999/xlink">
    <!-- Generator: Sketch 41.2 (35397) - http://www.bohemiancoding.com/sketch -->
    <desc>Created with Sketch.</desc>
    <defs></defs>
    <rect id="Rectangle" stroke="none" fill="#FB4667" fill-rule="evenodd" x="0" y="0" width="34" height="20"></rect>
    <path d="M11.2908115,7 L11.2908115,10.0171429 L9.18503315,7 L8,7 L8,13 L9.52604989,13 L9.52604989,9.98285714 L11.6318282,13 L12.808336,13 L12.808336,7 L11.2908115,7 Z M15.1030944,11.56 L15.1030944,10.6771429 L17.1577202,10.6771429 L17.1577202,9.26285714 L15.1030944,9.26285714 L15.1030944,8.43142857 L17.3708557,8.43142857 L17.3708557,7 L13.5770445,7 L13.5770445,13 L17.4134828,13 L17.4134828,11.56 L15.1030944,11.56 Z M19.2052416,13 L20.8165456,13 L21.7713925,9.61428571 L22.7262393,13 L24.3375434,13 L26,7 L24.3631197,7 L23.4338491,10.78 L22.3681718,7 L21.1660878,7 L20.1004105,10.78 L19.1796653,7 L17.5342596,7 L19.2052416,13 Z" id="NEW" stroke="none" fill="#FFFFFF" fill-rule="evenodd"></path>
</svg>
