<svg width="20px" height="16px" viewBox="0 0 20 16" version="1.1" xmlns="http://www.w3.org/2000/svg" xmlns:xlink="http://www.w3.org/1999/xlink">
  <!-- Generator: Sketch 43.2 (39069) - http://www.bohemiancoding.com/sketch -->
  <desc>Created with Sketch.</desc>
  <defs></defs>
  <g id="Symbols" stroke="none" stroke-width="1" fill="none" fill-rule="evenodd">
    <g id="timeline/default" transform="translate(-343.000000, -127.000000)" fill="#FFFFFF">
      <g id="playback/controls/extra">
        <g transform="translate(277.000000, 0.000000)">
          <g id="Group" transform="translate(50.000000, 90.000000)">
            <path d="M17.232,53.0004178 C17.007,53.0004178 16.782,52.9384178 16.594,52.8304178 C16.225,52.6154178 16,52.2314178 16,51.8204178 L16,38.1834178 C16,37.7634178 16.216,37.3884178 16.594,37.1734178 C16.971,36.9504178 17.448,36.9404178 17.844,37.1554178 L30.37,43.9654178 C30.767,44.1804178 31,44.5634178 31,45.0024178 C31,45.4394178 30.767,45.8244178 30.37,46.0384178 L17.844,52.8484178 C17.646,52.9464178 17.439,53.0004178 17.232,53.0004178 Z M17.232,38.0664178 C17.187,38.0664178 17.151,38.0854178 17.142,38.0944178 C17.106,38.1204178 17.079,38.1474178 17.079,38.1834178 L17.079,51.8124178 C17.079,51.8474178 17.097,51.8834178 17.142,51.9004178 C17.16,51.9094178 17.241,51.9454178 17.322,51.9004178 L29.849,45.0914178 C29.894,45.0644178 29.912,45.0374178 29.912,44.9934178 C29.912,44.9574178 29.894,44.9214178 29.849,44.9034178 L17.322,38.0944178 C17.286,38.0764178 17.259,38.0664178 17.232,38.0664178 Z M29.8468,50.5014178 C29.1598,50.5014178 28.4868,50.3734178 27.8428,50.1214178 C27.5858,50.0204178 27.4588,49.7304178 27.5598,49.4734178 C27.6608,49.2164178 27.9518,49.0894178 28.2078,49.1894178 C28.7348,49.3974178 29.2858,49.5014178 29.8478,49.5014178 L29.8618,49.5014178 C30.4488,49.5004178 31.0238,49.3854178 31.5718,49.1574178 C32.6818,48.6974178 33.5468,47.8324178 34.0068,46.7224178 C34.4668,45.6114178 34.4668,44.3894178 34.0068,43.2784178 C33.3078,41.5914178 31.6758,40.5004178 29.8498,40.4994178 L29.8428,40.4994178 C29.2538,40.4994178 28.6768,40.6144178 28.1268,40.8434178 C27.8738,40.9494178 27.5798,40.8284178 27.4738,40.5724178 C27.3678,40.3174178 27.4898,40.0244178 27.7438,39.9194178 C28.4158,39.6414178 29.1208,39.4994178 29.8418,39.4994178 L29.8508,39.4994178 C32.0808,39.5004178 34.0758,40.8334178 34.9308,42.8964178 C35.4928,44.2534178 35.4928,45.7474178 34.9308,47.1054178 C34.3678,48.4624178 33.3118,49.5194178 31.9538,50.0814178 C31.2788,50.3604178 30.5528,50.4914178 29.8468,50.5014178 Z" id="icon/nextflag"></path>
          </g>
        </g>
      </g>
    </g>
  </g>
</svg>
