<svg width="15px" height="16px" viewBox="0 0 15 16" version="1.1" xmlns="http://www.w3.org/2000/svg" xmlns:xlink="http://www.w3.org/1999/xlink">
  <!-- Generator: Sketch 43.2 (39069) - http://www.bohemiancoding.com/sketch -->
  <desc>Created with Sketch.</desc>
  <defs></defs>
  <g id="Symbols" stroke="none" stroke-width="1" fill="none" fill-rule="evenodd">
    <g id="timeline/default" transform="translate(-345.000000, -37.000000)" fill="#FFFFFF">
      <g id="playback/controls/extra">
        <g transform="translate(277.000000, 0.000000)">
          <g id="Group-4" transform="translate(50.000000, 0.000000)">
            <path d="M19.232,53.0000314 C19.007,53.0000314 18.782,52.9380314 18.594,52.8300314 C18.225,52.6160314 18,52.2310314 18,51.8200314 L18,38.1830314 C18,37.7630314 18.216,37.3880314 18.594,37.1730314 C18.971,36.9500314 19.448,36.9410314 19.844,37.1550314 L32.37,43.9650314 C32.767,44.1800314 33,44.5640314 33,45.0020314 C33,45.4390314 32.767,45.8240314 32.37,46.0380314 L19.844,52.8480314 C19.646,52.9460314 19.439,53.0000314 19.232,53.0000314 M19.232,38.0670314 C19.259,38.0670314 19.286,38.0760314 19.322,38.0940314 L31.849,44.9030314 C31.894,44.9210314 31.912,44.9570314 31.912,44.9930314 C31.912,45.0380314 31.894,45.0640314 31.849,45.0910314 L19.322,51.9000314 C19.241,51.9450314 19.16,51.9100314 19.142,51.9000314 C19.097,51.8830314 19.079,51.8480314 19.079,51.8120314 L19.079,38.1830314 C19.079,38.1470314 19.106,38.1210314 19.142,38.0940314 C19.151,38.0850314 19.187,38.0670314 19.232,38.0670314 Z M28.0001,41.0000314 C27.7241,41.0000314 27.5001,40.7760314 27.5001,40.5000314 L27.5001,37.5000314 C27.5001,37.2240314 27.7241,37.0000314 28.0001,37.0000314 C28.2761,37.0000314 28.5001,37.2240314 28.5001,37.5000314 L28.5001,40.5000314 C28.5001,40.7760314 28.2761,41.0000314 28.0001,41.0000314 Z M28.0001,53.0000314 C27.7241,53.0000314 27.5001,52.7760314 27.5001,52.5000314 L27.5001,49.5000314 C27.5001,49.2240314 27.7241,49.0000314 28.0001,49.0000314 C28.2761,49.0000314 28.5001,49.2240314 28.5001,49.5000314 L28.5001,52.5000314 C28.5001,52.7760314 28.2761,53.0000314 28.0001,53.0000314 Z" id="icon/nextstory"></path>
          </g>
        </g>
      </g>
    </g>
  </g>
</svg>
