<svg width="34px" height="55px" viewBox="0 0 34 55" version="1.1" xmlns="http://www.w3.org/2000/svg" xmlns:xlink="http://www.w3.org/1999/xlink">
    <!-- Generator: Sketch 41.2 (35397) - http://www.bohemiancoding.com/sketch -->
    <desc>Created with Sketch.</desc>
    <defs></defs>
    <polygon id="Rectangle" stroke="none" fill="#F0F0F0" fill-rule="evenodd" points="0 0 34 0 34 55 17 47.6666667 0 55"></polygon>
    <g id="flag-active" stroke="none" stroke-width="1" fill="none" fill-rule="evenodd" transform="translate(9.000000, 18.000000)">
        <path d="M12.7051981,9.68514208 L16,7.00231702 L7.43644267,3.25299865 L7.60477764,2.88881995 C7.75072536,2.57042612 7.60477764,2.19784653 7.28016238,2.0554514 C6.95554711,1.91263623 6.57195003,2.0554514 6.4255718,2.37174501 L6.25766735,2.73634375 L6.01528221,2.62965241 L2.85695651,9.49780217 L3.09934165,9.60449351 L0.056826959,16.2218766 C-0.089551277,16.5402705 0.056826959,16.91285 0.381442223,17.0556652 C0.467116544,17.0930492 0.556235058,17.1111111 0.645784097,17.1111111 C0.892905001,17.1111111 1.12840175,16.9733365 1.23603281,16.7389516 L4.27811697,10.1215685 L12.8416743,13.8692066 L12.7051981,9.68514208 Z" id="shape" fill="#D3D3D3"></path>
    </g>
</svg>
