
<svg width="17px" height="26px" viewBox="1752 28 17 26" version="1.1" xmlns="http://www.w3.org/2000/svg" xmlns:xlink="http://www.w3.org/1999/xlink">
    <!-- Generator: Sketch 42 (36781) - http://www.bohemiancoding.com/sketch -->
    <desc>Created with Sketch.</desc>
    <defs></defs>
    <path d="M1767.56749,45.0796053 L1766.95046,45.0796053 L1766.225,38.3379045 C1765.94526,36.0149678 1764.47628,33.7519023 1762.28419,32.9354461 L1762.38993,32.9354461 L1762.38993,30.8891212 C1762.38993,29.8452212 1761.54435,29 1760.5,29 C1759.45565,29 1758.60974,29.8452212 1758.60974,30.8891212 L1758.60974,32.9354461 L1758.66595,32.9354461 C1756.5003,33.7244753 1755.05206,35.8828497 1754.77366,38.3379045 L1754.0482,45.0796053 L1753.43117,45.0796053 C1752.6418,45.0796053 1752,45.7211305 1752,46.5104942 C1752,47.3008613 1752.64046,47.9410486 1753.43117,47.9410486 L1767.56883,47.9410486 C1768.3582,47.9410486 1769,47.3008613 1769,46.5104942 C1768.99732,45.7197926 1768.35686,45.0796053 1767.56749,45.0796053 Z M1758.29218,50.7931265 C1758.29218,52.0109541 1759.28031,53 1760.49866,53 C1761.71835,53 1762.70648,52.012292 1762.70648,50.7931265 L1762.70648,49.4475291 L1758.29218,49.4475291 L1758.29218,50.7931265 Z" id="Page-1" stroke="none" fill="" fill-rule="evenodd"></path>
</svg>