<?xml version="1.0" encoding="UTF-8"?>
<svg width="18px" height="18px" viewBox="0 0 18 18" version="1.1" xmlns="http://www.w3.org/2000/svg" xmlns:xlink="http://www.w3.org/1999/xlink">
    <!-- Generator: Sketch 42 (36781) - http://www.bohemiancoding.com/sketch -->
    <title>Combined Shape</title>
    <desc>Created with Sketch.</desc>
    <defs></defs>
    <g id="Symbols" stroke="none" stroke-width="1" fill="none" fill-rule="evenodd">
        <g id="status/paused" transform="translate(-6.000000, -6.000000)" fill="#D3D3D3">
            <path d="M15,6 C19.9715043,6 24,10.0284957 24,15 C24,19.9715043 19.9715043,24 15,24 C10.0284957,24 6,19.9715043 6,15 C6,10.0284957 10.0284957,6 15,6 Z M17,9 C16.4438648,9 16,9.44882258 16,10.0024733 L16,19.9975267 C16,20.544239 16.4477153,21 17,21 C17.5561352,21 18,20.5511774 18,19.9975267 L18,10.0024733 C18,9.45576096 17.5522847,9 17,9 Z M13,9 C12.4477153,9 12,9.45576096 12,10.0024733 L12,19.9975267 C12,20.5511774 12.4438648,21 13,21 C13.5522847,21 14,20.544239 14,19.9975267 L14,10.0024733 C14,9.44882258 13.5561352,9 13,9 Z" id="Combined-Shape"></path>
        </g>
    </g>
</svg>