<svg xmlns="http://www.w3.org/2000/svg" xmlns:xlink="http://www.w3.org/1999/xlink" width="60px" height="60px" viewBox="0 0 60 60" version="1.1">
    <!-- Generator: Sketch 43.2 (39069) - http://www.bohemiancoding.com/sketch -->
    <title>Navigation / Icon / Performances</title>
    <desc>Created with Sketch.</desc>
    <defs/>
    <g id="Symbols" stroke="none" stroke-width="1" fill="none" fill-rule="evenodd">
        <g id="Navigation-/-Icon-/-Performances" fill="#FFFFFF">
            <path d="M36.8143235,25.5119474 C36.6271685,25.3330816 36.3397059,25.3104684 36.1266971,25.4574658 C35.4101382,25.9498605 29.1088147,30.2858868 28.4285206,30.96115 C28.0045676,31.3826237 27.7698529,31.9428605 27.7698529,32.5400974 C27.7698529,33.1363079 28.0035379,33.6975711 28.4285206,34.1190447 C28.8524735,34.5405184 29.4170382,34.7728342 30.0167559,34.7728342 C30.6164735,34.7728342 31.1810382,34.5405158 31.6049912,34.1190447 C32.0671941,33.6595447 34.0855765,30.5724658 35.5022559,28.3727289 C36.9746824,29.8303868 37.8029206,31.7906237 37.8029206,33.8937816 C37.8029206,34.1939395 38.0469476,34.4355184 38.3478441,34.4355184 C38.6487353,34.4355184 38.8927676,34.1929184 38.8927676,33.8937816 C38.8927676,31.4174132 37.8846088,29.1137816 36.1009147,27.4393079 C36.4979735,26.8194395 36.7906059,26.3589132 36.8960647,26.1923868 C37.0366897,25.9744605 37.0015341,25.6897026 36.8143791,25.5118868 L36.8143235,25.5119474 Z M30.8346176,33.3532632 C30.3982765,33.7870526 29.6372471,33.7870526 29.2008794,33.3532632 C28.9827035,33.1353368 28.8627706,32.8475 28.8627706,32.5411842 C28.8627706,32.2338158 28.9827141,31.946 29.2008794,31.7280789 C29.5503706,31.3816579 32.0970265,29.5765526 34.5198794,27.8907105 C32.9285471,30.3578158 31.17585,33.0141316 30.8346441,33.3533421 L30.8346176,33.3532632 Z M32.3513824,25.3248421 L32.3514353,25.3247895 C32.641995,25.4049737 32.8115709,25.7041053 32.7298853,25.9919474 C32.6481971,26.2808053 32.3462471,26.4493921 32.0577706,26.3692105 C31.3742735,26.1800737 30.6639088,26.0844737 29.9463176,26.0844737 C25.6136118,26.0844737 22.0898471,29.5878947 22.0898471,33.895 C22.0898471,34.1941368 21.84582,34.4367368 21.5449235,34.4367368 C21.2440271,34.4367368 21,34.1941316 21,33.895 C21,28.9894737 25.014,25 29.9473235,25 C30.7631471,25 31.5727765,25.1089711 32.3513824,25.3248421 Z M29.9896765,33.1187895 C30.1354712,33.1187895 30.2740235,33.0601947 30.3753529,32.9594553 C30.476685,32.8587158 30.5356244,32.7209684 30.5356244,32.5770605 C30.5356244,32.4362289 30.47772,32.2943763 30.3753529,32.1946658 C30.1716538,31.9921579 29.8076912,31.9921579 29.6050059,32.1946658 C29.5036738,32.2954053 29.4447344,32.4362368 29.4447344,32.5770605 C29.4447344,32.7178921 29.5026388,32.8587184 29.6050059,32.9594553 C29.7053056,33.0601947 29.8438606,33.1187895 29.98965,33.1187895 L29.9896765,33.1187895 Z M30.4923529,27.6243158 C30.4923529,27.9244816 30.2483206,28.1670816 29.9474294,28.1660526 C29.6465329,28.1660526 29.4025059,27.9244737 29.4025059,27.6243158 L29.4025059,27.1216316 C29.4025059,26.8224947 29.6465382,26.5798947 29.9474294,26.5798947 C30.2483259,26.5798947 30.4923529,26.8225 30.4923529,27.1216316 L30.4923529,27.6243158 Z M23.9636471,33.1187895 L23.4580059,33.1187895 C23.1571094,33.1187895 22.9130824,32.8772105 22.9130824,32.5770526 C22.9130824,32.2779132 23.1571147,32.0353158 23.4580059,32.0353158 L23.9636471,32.0353158 C24.2645435,32.0353158 24.5085706,32.2779158 24.5085706,32.5770526 C24.5085706,32.8761895 24.2645382,33.1187895 23.9636471,33.1187895 Z M36.4368529,33.1187895 L35.9312118,33.1187895 C35.6303126,33.1187895 35.3862882,32.8772105 35.3862882,32.5770526 C35.3862882,32.2779132 35.6303206,32.0353158 35.9312118,32.0353158 L36.4368529,32.0353158 C36.7377494,32.0353158 36.9817765,32.2779158 36.9817765,32.5770526 C36.9817765,32.8761895 36.7377441,33.1187895 36.4368529,33.1187895 Z" id="Shape"/>
        </g>
    </g>
</svg>