<?xml version="1.0" encoding="UTF-8"?>
<svg width="18px" height="10px" viewBox="0 0 18 10" version="1.1" xmlns="http://www.w3.org/2000/svg" xmlns:xlink="http://www.w3.org/1999/xlink">
    <!-- Generator: Sketch 42 (36781) - http://www.bohemiancoding.com/sketch -->
    <title>assets/icon/performance</title>
    <desc>Created with Sketch.</desc>
    <defs></defs>
    <g id="Design" stroke="none" stroke-width="1" fill="none" fill-rule="evenodd">
        <g id="Overview" transform="translate(-21.000000, -375.000000)" fill="#FFFFFF">
            <g id="Group-17">
                <g id="assets/icon/performance" transform="translate(21.000000, 375.000000)">
                    <path d="M15.8193529,0.513947368 C15.6321979,0.335081579 15.3447353,0.312468421 15.1317265,0.459465789 C14.4151676,0.951860526 8.11384412,5.28788684 7.43355,5.96315 C7.00959706,6.38462368 6.77488235,6.94486053 6.77488235,7.54209737 C6.77488235,8.13830789 7.00856735,8.69957105 7.43355,9.12104474 C7.85750294,9.54251842 8.42206765,9.77483421 9.02178529,9.77483421 C9.62150294,9.77483421 10.1860676,9.54251579 10.6100206,9.12104474 C11.0722235,8.66154474 13.0906059,5.57446579 14.5072853,3.37472895 C15.9797118,4.83238684 16.80795,6.79262368 16.80795,8.89578158 C16.80795,9.19593947 17.0519771,9.43751842 17.3528735,9.43751842 C17.6537647,9.43751842 17.8977971,9.19491842 17.8977971,8.89578158 C17.8977971,6.41941316 16.8896382,4.11578158 15.1059441,2.44130789 C15.5030029,1.82143947 15.7956353,1.36091316 15.9010941,1.19438684 C16.0417191,0.976460526 16.0065635,0.691702632 15.8194085,0.513886842 L15.8193529,0.513947368 Z M9.83964706,8.35526316 C9.40330588,8.78905263 8.64227647,8.78905263 8.20590882,8.35526316 C7.98773294,8.13733684 7.8678,7.8495 7.8678,7.54318421 C7.8678,7.23581579 7.98774353,6.948 8.20590882,6.73007895 C8.5554,6.38365789 11.1020559,4.57855263 13.5249088,2.89271053 C11.9335765,5.35981579 10.1808794,8.01613158 9.83967353,8.35534211 L9.83964706,8.35526316 Z" id="Fill-1"></path>
                    <path d="M11.3564118,0.326842105 C10.5778059,0.110971053 9.76817647,0.002 8.95235294,0.002 C4.01902941,0.002 0.00502941176,3.99147368 0.00502941176,8.897 C0.00502941176,9.19613158 0.249056471,9.43873684 0.549952941,9.43873684 C0.850849412,9.43873684 1.09487647,9.19613684 1.09487647,8.897 C1.09487647,4.58989474 4.61864118,1.08647368 8.95134706,1.08647368 C9.66893824,1.08647368 10.3793029,1.18207368 11.0628,1.37121053 C11.3512765,1.45139211 11.6532265,1.28280526 11.7349147,0.993947368 C11.8166003,0.706105263 11.6470244,0.406973684 11.3564647,0.326789474 L11.3564118,0.326842105 Z" id="Fill-2"></path>
                    <path d="M8.99470588,8.12078947 C9.14050059,8.12078947 9.27905294,8.06219474 9.38038235,7.96145526 C9.48171441,7.86071579 9.54065382,7.72296842 9.54065382,7.57906053 C9.54065382,7.43822895 9.48274941,7.29637632 9.38038235,7.19666579 C9.17668324,6.99415789 8.81272059,6.99415789 8.61003529,7.19666579 C8.50870324,7.29740526 8.44976382,7.43823684 8.44976382,7.57906053 C8.44976382,7.71989211 8.50766824,7.86071842 8.61003529,7.96145526 C8.710335,8.06219474 8.84889,8.12078947 8.99467941,8.12078947 L8.99470588,8.12078947 Z" id="Fill-3"></path>
                    <path d="M9.49738235,2.62631579 L9.49738235,2.12363158 C9.49738235,1.8245 9.25335529,1.58189474 8.95245882,1.58189474 C8.65156765,1.58189474 8.40753529,1.82449474 8.40753529,2.12363158 L8.40753529,2.62631579 C8.40753529,2.92647368 8.65156235,3.16805263 8.95245882,3.16805263 C9.25335,3.16908158 9.49738235,2.92648158 9.49738235,2.62631579 Z" id="Fill-4"></path>
                    <path d="M2.96867647,8.12078947 C3.26956765,8.12078947 3.5136,7.87818947 3.5136,7.57905263 C3.5136,7.27991579 3.26957294,7.03731579 2.96867647,7.03731579 L2.46303529,7.03731579 C2.16214412,7.03731579 1.91811176,7.27991316 1.91811176,7.57905263 C1.91811176,7.87921053 2.16213882,8.12078947 2.46303529,8.12078947 L2.96867647,8.12078947 Z" id="Fill-5"></path>
                    <path d="M15.4418824,8.12078947 C15.7427735,8.12078947 15.9868059,7.87818947 15.9868059,7.57905263 C15.9868059,7.27991579 15.7427788,7.03731579 15.4418824,7.03731579 L14.9362412,7.03731579 C14.63535,7.03731579 14.3913176,7.27991316 14.3913176,7.57905263 C14.3913176,7.87921053 14.6353421,8.12078947 14.9362412,8.12078947 L15.4418824,8.12078947 Z" id="Fill-6"></path>
                </g>
            </g>
        </g>
    </g>
</svg>