<svg width="15px" height="16px" viewBox="0 0 15 16" version="1.1" xmlns="http://www.w3.org/2000/svg" xmlns:xlink="http://www.w3.org/1999/xlink">
  <!-- Generator: Sketch 43.2 (39069) - http://www.bohemiancoding.com/sketch -->
  <desc>Created with Sketch.</desc>
  <defs></defs>
  <g id="Symbols" stroke="none" stroke-width="1" fill="none" fill-rule="evenodd">
    <g id="timeline/minimized" transform="translate(-296.000000, -92.000000)" fill="#FFFFFF">
      <g id="Timeline-Minimezes">
        <g id="timeline/minimised">
          <g id="timeline/bottom">
            <g id="playback/controls/extra" transform="translate(278.000000, 0.000000)">
              <g id="Group-7" transform="translate(0.000000, 80.000000)">
                <path d="M19.232,28.0004178 C19.007,28.0004178 18.782,27.9384178 18.594,27.8304178 C18.225,27.6154178 18,27.2314178 18,26.8204178 L18,13.1834178 C18,12.7634178 18.216,12.3884178 18.594,12.1734178 C18.971,11.9504178 19.448,11.9404178 19.844,12.1554178 L32.37,18.9654178 C32.767,19.1804178 33,19.5634178 33,20.0024178 C33,20.4394178 32.767,20.8244178 32.37,21.0384178 L19.844,27.8484178 C19.646,27.9464178 19.439,28.0004178 19.232,28.0004178 Z M19.232,13.0664178 C19.187,13.0664178 19.151,13.0854178 19.142,13.0944178 C19.106,13.1204178 19.079,13.1474178 19.079,13.1834178 L19.079,26.8124178 C19.079,26.8474178 19.097,26.8834178 19.142,26.9004178 C19.16,26.9094178 19.241,26.9454178 19.322,26.9004178 L31.849,20.0914178 C31.894,20.0644178 31.912,20.0374178 31.912,19.9934178 C31.912,19.9574178 31.894,19.9214178 31.849,19.9034178 L19.322,13.0944178 C19.286,13.0764178 19.259,13.0664178 19.232,13.0664178 Z" id="icon/nextflag"></path>
              </g>
            </g>
          </g>
        </g>
      </g>
    </g>
  </g>
</svg>
