<?xml version="1.0" encoding="UTF-8"?>
<svg width="18px" height="18px" viewBox="0 0 18 18" version="1.1" xmlns="http://www.w3.org/2000/svg" xmlns:xlink="http://www.w3.org/1999/xlink">
    <!-- Generator: Sketch 42 (36781) - http://www.bohemiancoding.com/sketch -->
    <title>Combined Shape</title>
    <desc>Created with Sketch.</desc>
    <defs></defs>
    <g id="Symbols" stroke="none" stroke-width="1" fill="none" fill-rule="evenodd">
        <g id="status/running" transform="translate(-6.000000, -6.000000)" fill="#1393FC">
            <path d="M15,6 C19.9715043,6 24,10.0284957 24,15 C24,19.9715043 19.9715043,24 15,24 C10.0284957,24 6,19.9715043 6,15 C6,10.0284957 10.0284957,6 15,6 Z M11.5,17 C12.3284271,17 13,16.3284271 13,15.5 C13,14.6715729 12.3284271,14 11.5,14 C10.6715729,14 10,14.6715729 10,15.5 C10,16.3284271 10.6715729,17 11.5,17 Z M15,17 C15.8284271,17 16.5,16.3284271 16.5,15.5 C16.5,14.6715729 15.8284271,14 15,14 C14.1715729,14 13.5,14.6715729 13.5,15.5 C13.5,16.3284271 14.1715729,17 15,17 Z M18.5,17 C19.3284271,17 20,16.3284271 20,15.5 C20,14.6715729 19.3284271,14 18.5,14 C17.6715729,14 17,14.6715729 17,15.5 C17,16.3284271 17.6715729,17 18.5,17 Z" id="Combined-Shape"></path>
        </g>
    </g>
</svg>