<?xml version="1.0" encoding="UTF-8"?>
<svg width="16px" height="16px" viewBox="0 0 16 16" version="1.1" xmlns="http://www.w3.org/2000/svg" xmlns:xlink="http://www.w3.org/1999/xlink">
    <!-- Generator: Sketch 42 (36781) - http://www.bohemiancoding.com/sketch -->
    <title>assets/icon/search</title>
    <desc>Created with Sketch.</desc>
    <defs></defs>
    <g id="Design" stroke="none" stroke-width="1" fill="none" fill-rule="evenodd">
        <g id="Overview" transform="translate(-22.000000, -122.000000)" fill="#FFFFFF">
            <g id="Group-17">
                <g id="assets/icon/search" transform="translate(22.000000, 122.000000)">
                    <path d="M15.7552102,14.5739819 L11.8910494,10.7100873 C13.9115628,8.10654676 13.7288514,4.33466952 11.3391243,1.94589186 C10.0839275,0.690781592 8.41574307,0 6.64190671,0 C4.8674023,0 3.19995437,0.690831692 1.9453572,1.94522386 C0.690812479,3.19968283 0,4.86773567 0,6.64211785 C0,8.41650002 0.690879451,10.0845028 1.9453572,11.3390118 C3.19990259,12.5934708 4.86807035,13.2842357 6.64257475,13.2842357 C8.13524611,13.2842357 9.5515929,12.7936712 10.7114942,11.8914835 L14.5756533,15.7553774 C14.7387507,15.9184636 14.9527334,16 15.1660747,16 C15.3794161,16 15.5933921,15.9184569 15.7564962,15.7553774 C16.081385,15.4285571 16.081385,14.9001503 15.7551918,14.5739819 L15.7552102,14.5739819 Z M3.12558217,10.1576491 C2.18613866,9.21827026 1.66878503,7.96960621 1.66878503,6.64144984 C1.66878503,5.31327677 2.18613866,4.06462943 3.12558217,3.12525063 C4.06437433,2.18587183 5.3131077,1.66855384 6.64135557,1.66855384 C7.96962013,1.66855384 9.2183535,2.18587183 10.157797,3.12525063 C12.0966414,5.06396147 12.0966414,8.21810322 10.157797,10.1568141 C9.2183535,11.0961928 7.96960343,11.6135108 6.64135557,11.6135108 C5.31374235,11.6141621 4.06502568,11.0968442 3.12558217,10.1574654 L3.12558217,10.1576491 Z" id="Page-1"></path>
                </g>
            </g>
        </g>
    </g>
</svg>