<svg xmlns="http://www.w3.org/2000/svg" xmlns:xlink="http://www.w3.org/1999/xlink" width="60px" height="60px" viewBox="0 0 60 60" version="1.1">
    <!-- Generator: Sketch 43.2 (39069) - http://www.bohemiancoding.com/sketch -->
    <title>nav-settings</title>
    <desc>Created with Sketch.</desc>
    <defs/>
    <g id="Page-1" stroke="none" stroke-width="1" fill="none" fill-rule="evenodd">
        <g id="nav-settings" stroke="#FFFFFF" stroke-width="0.25" fill="#FFFFFF">
            <path d="M38.17475,28.3495 L38.17475,28.349495 C38.575125,28.424695 38.84955,28.77527 38.84955,29.174695 L38.84955,30.849495 C38.84955,31.249895 38.57515,31.5995 38.17475,31.674695 L37.14935,32.124895 C36.599555,32.349495 36.32514,32.974495 36.54975,33.549695 L36.97455,34.624895 C37.17475,34.950095 37.12495,35.399295 36.84955,35.674695 L35.67475,36.849495 C35.37495,37.1493 34.92475,37.199105 34.59955,36.974495 L33.54975,36.549695 C32.99995,36.349495 32.37495,36.599495 32.12495,37.149295 L31.67475,38.199095 C31.59955,38.574095 31.24995,38.849495 30.84955,38.849495 L29.17475,38.849495 C28.77435,38.849495 28.424745,38.575095 28.34955,38.174695 L27.89935,37.149295 C27.67475,36.5995 27.04975,36.325085 26.47455,36.549695 L25.39935,36.974495 C25.07415,37.174695 24.62495,37.124895 24.34955,36.849495 L23.17475,35.674695 C22.874945,35.374895 22.82514,34.949095 23.04975,34.599495 L23.47455,33.549695 C23.67475,32.999895 23.42475,32.374895 22.87495,32.124895 L21.82515,31.674695 C21.45015,31.599495 21.17475,31.249895 21.17475,30.849495 L21.17475,29.174695 C21.17475,28.774295 21.44915,28.42469 21.84955,28.349495 L22.87495,27.899295 C23.424745,27.674695 23.69916,27.049695 23.47455,26.474495 L23.04975,25.399295 C22.84955,25.074095 22.89935,24.624895 23.17475,24.349495 L24.34955,23.174695 C24.64935,22.87489 25.09955,22.825085 25.42475,23.049695 L26.47455,23.474495 C27.02435,23.674695 27.64935,23.424695 27.89935,22.874895 L28.34955,21.825095 C28.42475,21.450095 28.77435,21.174695 29.17475,21.174695 L30.84955,21.174695 C31.24995,21.174695 31.599555,21.449095 31.67475,21.849495 L32.12495,22.874895 C32.34955,23.42469 32.97455,23.699105 33.54975,23.474495 L34.62495,23.049695 C34.95015,22.849495 35.39935,22.899295 35.67475,23.174695 L36.84955,24.349495 C37.12494,24.624895 37.19916,25.075095 36.97455,25.424695 L36.54975,26.474495 C36.45014,26.724495 36.45014,27.024295 36.54975,27.299695 L36.54975,27.3495 C36.67475,27.5995 36.87495,27.79969 37.12495,27.8993 L38.17475,28.3495 Z M35.84955,33.825 L35.84955,33.8249925 C35.47455,32.9001925 35.924725,31.8493925 36.823175,31.4226425 L37.997975,30.9226425 C38.04778,30.9226425 38.07317,30.8728375 38.07317,30.8230325 L38.07317,29.1482325 C38.07317,29.0984275 38.04778,29.0486225 37.997975,29.0486225 L37.92278,29.0232325 L36.82318,28.5486325 C36.37398,28.3484325 36.023385,27.9988325 35.84858,27.5486325 L35.84858,27.4988275 C35.673775,27.0740275 35.673775,26.5740275 35.84858,26.1492275 L36.32318,24.9744275 C36.372985,24.9490375 36.34857,24.8748175 36.32318,24.8494275 L35.14838,23.6746275 C35.12299,23.6492375 35.073185,23.6492375 35.02338,23.6746275 L34.948185,23.7000175 L33.848585,24.1502175 C32.898385,24.4998175 31.848585,24.0750175 31.448185,23.1502175 L30.948185,21.9754175 C30.948185,21.9256125 30.89838,21.9002225 30.848575,21.9002225 L29.173775,21.9002225 C29.12397,21.9002225 29.074165,21.9256125 29.074165,21.9754175 L29.048775,22.0506125 L28.574175,23.1502125 C28.148375,24.0750175 27.098575,24.4998125 26.173775,24.1502125 L24.998975,23.6756125 C24.973585,23.6258075 24.899365,23.6502225 24.873975,23.6756125 L23.699175,24.8504125 C23.673785,24.8758025 23.673785,24.9256075 23.699175,24.9754125 L23.724565,25.0506075 L24.174765,26.1502075 C24.524365,27.1004075 24.099565,28.1502075 23.174765,28.5506075 L21.999965,29.0506075 C21.95016,29.0506075 21.92477,29.1004125 21.92477,29.1502175 L21.92477,30.8250175 C21.92477,30.8748225 21.95016,30.9246275 21.999965,30.9246275 L22.050745,30.950995 L23.150345,31.425595 C24.07515,31.851395 24.499945,32.901195 24.150345,33.825995 L23.675745,35.000795 C23.62594,35.026185 23.650355,35.100405 23.675745,35.125795 L24.850545,36.300595 C24.875935,36.325985 24.92574,36.325985 24.975545,36.300595 L25.05074,36.275205 L26.15034,35.825005 C27.10054,35.450005 28.15034,35.900205 28.55074,36.825005 L29.05074,37.999805 C29.05074,38.04961 29.100545,38.075 29.15035,38.075 L30.82515,38.075 C30.874955,38.075 30.92476,38.04961 30.92476,37.999805 L30.97554,37.900195 L31.45014,36.824995 C31.87594,35.90019 32.92574,35.449995 33.85054,35.824995 L35.02534,36.299595 C35.05073,36.3494 35.12495,36.324985 35.15034,36.299595 L36.32514,35.124795 C36.35053,35.099405 36.35053,35.0496 36.32514,34.999795 L36.29975,34.9246 L35.84955,33.825 Z M30,25.625 C32.4004,25.625 34.375,27.5996 34.375,30 C34.375,32.4004 32.4004,34.375 30,34.375 C27.5996,34.375 25.625,32.4004 25.625,30 C25.625,27.5996 27.5996,25.625 30,25.625 Z M30,33.625 C28,33.625 26.375,32 26.375,30 C26.375,28 28,26.375 30,26.375 C32,26.375 33.625,28 33.625,30 C33.625,32 32,33.625 30,33.625 Z" id="Combined-Shape"/>
        </g>
    </g>
</svg>