<?xml version="1.0" encoding="UTF-8"?>
<svg width="21px" height="11px" viewBox="0 0 21 11" version="1.1" xmlns="http://www.w3.org/2000/svg" xmlns:xlink="http://www.w3.org/1999/xlink">
    <!-- Generator: Sketch 42 (36781) - http://www.bohemiancoding.com/sketch -->
    <title>assets/icon/campaign</title>
    <desc>Created with Sketch.</desc>
    <defs></defs>
    <g id="Design" stroke="none" stroke-width="1" fill="none" fill-rule="evenodd">
        <g id="Overview" transform="translate(-19.000000, -314.000000)" fill="#FFFFFF">
            <g id="Group-17">
                <g id="assets/icon/campaign" transform="translate(19.500000, 314.000000)">
                    <path d="M18.0704262,2.25627795e-06 C17.3791692,-0.00105250063 16.7395441,0.36776443 16.3939292,0.967330341 C16.0493663,1.56692323 16.0514704,2.30557678 16.3991976,2.90306555 L13.017771,6.28557115 C12.4455856,5.95047677 11.7395729,5.9346689 11.1526317,6.24342134 L9.21689645,4.30873819 C9.53197473,3.70914531 9.5108796,2.98840374 9.15999353,2.40882696 C8.81014334,1.82927715 8.18211788,1.47521872 7.5045647,1.47521872 C6.82806358,1.47521872 6.20003811,1.82927715 5.84913586,2.40882696 C5.49928567,2.98837677 5.47821751,3.70914531 5.79223294,4.30873819 L2.84592732,7.25828093 C1.98922732,6.80832325 0.932312333,7.05701658 0.366466272,7.84206595 C-0.199406765,8.62711801 -0.100351334,9.70930939 0.597236833,10.3784191 C1.29480612,11.0486079 2.37912859,11.1033959 3.1409814,10.5059233 C3.90178215,9.90951358 4.10830948,8.84310309 3.62360687,8.00539411 L6.54131806,5.08552485 C7.1377278,5.43221886 7.87325214,5.43221886 8.46966188,5.08552485 L10.3748334,6.98859226 C10.0323746,7.5797417 10.0292184,8.30787465 10.3632419,8.9032593 C10.6983363,9.49861698 11.3232055,9.87271848 12.006019,9.88744731 C12.6888325,9.90220042 13.3284576,9.55550911 13.6899074,8.9759593 C14.0502782,8.39640949 14.0776857,7.66824956 13.7626155,7.06234432 L17.178841,3.64611886 C17.7057069,3.92113796 18.3295241,3.93904994 18.8711458,3.69459182 C19.4117155,3.45012291 19.8110934,2.96961504 19.9522851,2.39216935 C20.0924329,1.81577572 19.9607151,1.20566224 19.5940185,0.738844637 C19.2262563,0.270974972 18.6646185,-0.000887947766 18.0703129,0.000164111559 L18.0704262,2.25627795e-06 Z M1.95017973,9.82084117 C1.60348572,9.82084117 1.29264265,9.61219892 1.15986737,9.29292319 C1.02709479,8.97363668 1.10085763,8.6058745 1.34532655,8.36141908 C1.58979546,8.11696365 1.95754414,8.04318462 2.27683066,8.1759599 C2.59716924,8.30767773 2.80474863,8.61957825 2.80474863,8.9652202 C2.80474863,9.19282919 2.71518062,9.40989061 2.55501133,9.57007339 C2.39378729,9.73129743 2.17672857,9.82086545 1.95015815,9.82086545 L1.95017973,9.82084117 Z M7.50559248,4.26650745 C7.1599775,4.26650745 6.8480554,4.05786521 6.71528012,3.73858948 C6.58356229,3.41930296 6.65627038,3.05154079 6.90073929,2.80708536 C7.14520821,2.56262994 7.51295689,2.48885091 7.83329547,2.62162619 C8.15258199,2.75334402 8.36121344,3.06524454 8.36121344,3.41088649 C8.36121344,3.63849548 8.27059067,3.8555569 8.11042138,4.01573967 C7.9502521,4.17592245 7.73213862,4.26653173 7.5055682,4.26653173 L7.50559248,4.26650745 Z M12.0483307,8.80924566 C11.7027157,8.80924566 11.3907936,8.60060342 11.2580183,8.28132769 C11.1263005,7.96204117 11.1990086,7.594279 11.4434775,7.34982357 C11.6879464,7.10536815 12.0556951,7.03158912 12.3760337,7.1643644 C12.6953202,7.29608223 12.9039517,7.60798275 12.9039517,7.9536247 C12.9039517,8.18123369 12.8143836,8.39934717 12.6531596,8.55952994 C12.4929903,8.72075399 12.2759289,8.810322 12.0483064,8.810322 L12.0483307,8.80924566 Z M18.0693471,2.78822922 C17.7237322,2.78822922 17.4118101,2.57958698 17.2790348,2.26031125 C17.1473169,1.94102473 17.220025,1.57326256 17.4644939,1.32880713 C17.7089629,1.08435171 18.0767115,1.01057268 18.3970501,1.14334796 C18.7163366,1.27506579 18.9249681,1.58696631 18.9249681,1.93366032 C18.9249681,2.16021455 18.8354001,2.37727867 18.6752308,2.5385135 C18.5150615,2.69868279 18.2980001,2.78930556 18.0703776,2.78930556 L18.0693471,2.78822922 Z" id="Fill-8"></path>
                </g>
            </g>
        </g>
    </g>
</svg>