<svg width="18px" height="19px" viewBox="6 5 18 19" version="1.1" xmlns="http://www.w3.org/2000/svg" xmlns:xlink="http://www.w3.org/1999/xlink">
    <!-- Generator: Sketch 41.2 (35397) - http://www.bohemiancoding.com/sketch -->
    <desc>Created with Sketch.</desc>
    <defs></defs>
    <path d="M15,13.5857864 L12.8754252,11.4612117 C12.4937763,11.0795627 11.8549904,11.0739418 11.4644661,11.4644661 C11.0712191,11.857713 11.0724848,12.4866983 11.4612117,12.8754252 L13.5857864,15 L11.4612117,17.1245748 C11.0724848,17.5133017 11.0712191,18.142287 11.4644661,18.5355339 C11.8549904,18.9260582 12.4937763,18.9204373 12.8754252,18.5387883 L15,16.4142136 L17.1245748,18.5387883 C17.5062237,18.9204373 18.1450096,18.9260582 18.5355339,18.5355339 C18.9287809,18.142287 18.9275152,17.5133017 18.5387883,17.1245748 L16.4142136,15 L18.5387883,12.8754252 C18.9275152,12.4866983 18.9287809,11.857713 18.5355339,11.4644661 C18.1450096,11.0739418 17.5062237,11.0795627 17.1245748,11.4612117 L15,13.5857864 Z M15,6 C10.0284957,6 6,10.0284957 6,15 C6,19.9715043 10.0284957,24 15,24 C19.9715043,24 24,19.9715043 24,15 C24,10.0284957 19.9715043,6 15,6 Z" id="Combined-Shape" stroke="none" fill="#D60000" fill-rule="evenodd"></path>
</svg>
