<svg width="18px" height="18px" viewBox="6 6 18 18" version="1.1" xmlns="http://www.w3.org/2000/svg" xmlns:xlink="http://www.w3.org/1999/xlink">
    <!-- Generator: Sketch 41.2 (35397) - http://www.bohemiancoding.com/sketch -->
    <desc>Created with Sketch.</desc>
    <defs></defs>
    <path d="M15,6 C10.0284957,6 6,10.0284957 6,15 C6,19.9715043 10.0284957,24 15,24 C19.9715043,24 24,19.9715043 24,15 C24,10.0284957 19.9715043,6 15,6 Z M10.5,16.5 C11.3284271,16.5 12,15.8284271 12,15 C12,14.1715729 11.3284271,13.5 10.5,13.5 C9.67157288,13.5 9,14.1715729 9,15 C9,15.8284271 9.67157288,16.5 10.5,16.5 Z M15,16.5 C15.8284271,16.5 16.5,15.8284271 16.5,15 C16.5,14.1715729 15.8284271,13.5 15,13.5 C14.1715729,13.5 13.5,14.1715729 13.5,15 C13.5,15.8284271 14.1715729,16.5 15,16.5 Z M19.5,16.5 C20.3284271,16.5 21,15.8284271 21,15 C21,14.1715729 20.3284271,13.5 19.5,13.5 C18.6715729,13.5 18,14.1715729 18,15 C18,15.8284271 18.6715729,16.5 19.5,16.5 Z" id="Combined-Shape" stroke="none" fill="#1393FC" fill-rule="evenodd"></path>
</svg>
