<svg width="18px" height="19px" viewBox="6 5 18 19" version="1.1" xmlns="http://www.w3.org/2000/svg" xmlns:xlink="http://www.w3.org/1999/xlink">
    <!-- Generator: Sketch 41.2 (35397) - http://www.bohemiancoding.com/sketch -->
    <desc>Created with Sketch.</desc>
    <defs></defs>
    <path d="M13.8313635,16.4125132 L11.7035222,14.2846719 C11.321824,13.9029737 10.6863539,13.9006686 10.2958296,14.2911929 C9.90258263,14.6844398 9.90238576,15.3119626 10.2893086,15.6988855 L13.1307777,18.5403545 C13.5124759,18.9220527 14.147946,18.9243578 14.5384703,18.5338336 C14.5674235,18.5048803 14.5942461,18.4746572 14.6189404,18.4433536 C14.6494715,18.4194321 14.6788206,18.3934833 14.7067887,18.3655151 L20.3701518,12.702152 C20.7588787,12.3134251 20.7601444,11.6844398 20.3668974,11.2911929 C19.9763731,10.9006686 19.3375872,10.9062895 18.9559382,11.2879385 L13.8313635,16.4125132 Z M15,6 C10.0284957,6 6,10.0284957 6,15 C6,19.9715043 10.0284957,24 15,24 C19.9715043,24 24,19.9715043 24,15 C24,10.0284957 19.9715043,6 15,6 Z" id="Combined-Shape" stroke="none" fill="#02E60C" fill-rule="evenodd"></path>
</svg>
