<svg width="18px" height="18px" viewBox="6 6 18 18" version="1.1" xmlns="http://www.w3.org/2000/svg" xmlns:xlink="http://www.w3.org/1999/xlink">
    <!-- Generator: Sketch 41.2 (35397) - http://www.bohemiancoding.com/sketch -->
    <desc>Created with Sketch.</desc>
    <defs></defs>
    <path d="M15,6 C10.0284957,6 6,10.0284957 6,15 C6,19.9715043 10.0284957,24 15,24 C19.9715043,24 24,19.9715043 24,15 C24,10.0284957 19.9715043,6 15,6 Z M16.9,10.5 C17.3970563,10.5 17.8,10.910098 17.8,11.3958578 L17.8,18.6041422 C17.8,19.0989108 17.4005217,19.5 16.9,19.5 C16.4029437,19.5 16,19.089902 16,18.6041422 L16,11.3958578 C16,10.9010892 16.3994783,10.5 16.9,10.5 Z M13.15,10.5 C12.6529437,10.5 12.25,10.910098 12.25,11.3958578 L12.25,18.6041422 C12.25,19.0989108 12.6494783,19.5 13.15,19.5 C13.6470563,19.5 14.05,19.089902 14.05,18.6041422 L14.05,11.3958578 C14.05,10.9010892 13.6505217,10.5 13.15,10.5 Z" id="Combined-Shape" stroke="none" fill="#D3D3D3" fill-rule="evenodd"></path>
</svg>
