<svg width="14px" height="14px" viewBox="0 0 14 14" version="1.1" xmlns="http://www.w3.org/2000/svg" xmlns:xlink="http://www.w3.org/1999/xlink">
    <!-- Generator: Sketch 41.2 (35397) - http://www.bohemiancoding.com/sketch -->
    <desc>Created with Sketch.</desc>
    <defs></defs>
    <path d="M7,0 C3.13392593,0 0,3.13392593 0,7 C0,10.8660741 3.13392593,14 7,14 C10.8660741,14 14,10.8660741 14,7 C14,3.13392593 10.8660741,0 7,0 Z M7,2.59259259 C7.28622222,2.59259259 7.51851852,2.82488889 7.51851852,3.11111111 L7.51851852,6.7002963 L10.1760988,8.23960494 C10.4242963,8.38271605 10.5134815,8.69590123 10.3703704,8.94444444 C10.2272593,9.19298765 9.90577778,9.27387654 9.65758025,9.13076543 L6.7974321,7.47807407 C6.62182716,7.37402469 6.52745679,7.23782716 6.48148148,7 L6.48148148,3.11111111 C6.48148148,2.82488889 6.71377778,2.59259259 7,2.59259259 Z" id="shape" stroke="none" fill="#000000" fill-rule="evenodd"></path>
</svg>
