<svg viewBox="5 7 14 10" version="1.1" xmlns="http://www.w3.org/2000/svg" xmlns:xlink="http://www.w3.org/1999/xlink">
    <path d="M6.51671582,15.3383904 C6.6513483,15.5013121 6.80703861,15.6 6.98141264,15.6 L17.0185874,15.6 C17.1929614,15.6 17.3486517,15.5013121 17.4832842,15.3383904 C17.4978861,15.3207203 17.5115203,15.3032727 17.5241636,15.2862995 L17.5241636,14.4 L6.47583643,14.4 L6.47583643,15.2862995 C6.48847968,15.3032727 6.50211393,15.3207203 6.51671582,15.3383904 Z M6.92936803,14 L6,14 L6,15.5481686 L6.10594493,15.6558143 C6.1558668,15.7065375 6.23938259,15.7729469 6.35410202,15.8365257 C6.53893981,15.9389647 6.74918815,16 6.98141264,16 L17.0185874,16 C17.2508118,16 17.4610602,15.9389647 17.645898,15.8365257 C17.7606174,15.7729469 17.8441332,15.7065375 17.8940551,15.6558143 L18,15.5481686 L18,14 L17.070632,14 L17.070632,8.63137632 C17.070632,8.2835564 16.7968261,8 16.4609665,8 L7.53903346,8 C7.20317389,8 6.92936803,8.2835564 6.92936803,8.63137632 L6.92936803,14 Z M7.40520446,14 L16.5947955,14 L16.5947955,8.63137632 C16.5947955,8.55571212 16.5340289,8.49278152 16.4609665,8.49278152 L7.53903346,8.49278152 C7.46597109,8.49278152 7.40520446,8.55571212 7.40520446,8.63137632 L7.40520446,14 Z M11.9478959,9.49876058 C11.9478959,9.42673234 12.0519851,9.42673234 12.0519851,9.49876058 C12.0519851,9.57078881 11.9478959,9.57078881 11.9478959,9.49876058 L12.4237323,9.49876058 C12.4237323,8.91374678 11.5761487,8.91374678 11.5761487,9.49876058 C11.5761487,10.0837744 12.4237323,10.0837744 12.4237323,9.49876058 L11.9478959,9.49876058 Z" id="Combined-Shape" stroke="#000000" stroke-width="0.35" fill="#000000" fill-rule="evenodd"></path>
</svg>
