<?xml version="1.0" encoding="UTF-8"?>
<svg width="18px" height="21px" viewBox="0 0 18 21" version="1.1" xmlns="http://www.w3.org/2000/svg" xmlns:xlink="http://www.w3.org/1999/xlink">
    <!-- Generator: Sketch 42 (36781) - http://www.bohemiancoding.com/sketch -->
    <title>Page 1</title>
    <desc>Created with Sketch.</desc>
    <defs></defs>
    <g id="Design" stroke="none" stroke-width="1" fill="none" fill-rule="evenodd">
        <g id="Overview" transform="translate(-21.000000, -190.000000)" stroke-width="1" stroke="none" fill="#FFFFFF">
            <g id="Group-17">
                <path d="M37.192244,195.889172 C34.0710559,195.320036 30.8030831,191.395698 30.7696363,191.358186 C30.5752531,191.130249 30.2948136,191 30.0000736,191 C29.7037183,191 29.4232789,191.130249 29.2289201,191.358186 C29.1970518,191.397261 25.924373,195.211921 22.8079439,195.889172 C22.3315305,195.993371 21.9937582,196.426464 22.0001213,196.923034 C22.087752,202.971574 25.5994085,210 30.0000328,210 C34.4006571,210 37.9122483,202.971574 37.9999443,196.923034 C38.0024442,196.728192 37.8000321,196 37.192244,195.889172 Z M28.9802307,194.542714 L28.9802307,207.655524 C26.7623426,206.623304 24.3771755,202.448678 24.0712593,197.691372 C24.0712593,197.691372 27.7295638,195.679149 28.9802307,194.542714 Z M31.0180402,207.665402 C31.0180402,207.662147 31.019635,207.658892 31.019635,207.655632 L31.019635,194.542822 C32.2703834,195.679257 34.0469405,197.045222 35.9285696,197.691589 C35.6226535,202.448895 33.2358548,206.623521 31.0180035,207.66551 L31.0180402,207.665402 Z" id="Page-1"></path>
            </g>
        </g>
    </g>
</svg>