<svg xmlns="http://www.w3.org/2000/svg" viewBox="0 0 712 512">
  <g transform="translate(100, 0)">
    <g transform="rotate(-90, 256,256)">
      <path
        d="M510.613 48.105c-1.92-3.307-5.44-5.44-9.28-5.44H10.667C4.8 42.665 0 47.465 0 53.332c0 1.92.533 3.84 1.493 5.547l245.227 405.12c1.92 3.2 5.44 5.44 9.28 5.333 3.947 0 7.253-2.027 9.173-5.12L510.507 58.879c1.92-3.307 2.026-7.467.106-10.774zM256 438.079L29.547 63.999h452.8L256 438.079z"/>
    </g>
    <line x1="0" y1="0" x2="0" y2="140" stroke-width="30" stroke="white" transform="translate(340, 0)"></line>
    <line x1="0" y1="0" x2="0" y2="140" stroke-width="30" stroke="white" transform="translate(340, 366)"></line>
  </g>
</svg>
